<?xml version="1.0" encoding="utf-8"?>
<!-- Generator: Adobe Illustrator 29.5.1, SVG Export Plug-In . SVG Version: 9.03 Build 0)  -->
<svg version="1.0" id="Layer_1" xmlns="http://www.w3.org/2000/svg" xmlns:xlink="http://www.w3.org/1999/xlink" x="0px" y="0px"
	 viewBox="0 0 500 500" style="enable-background:new 0 0 500 500;" xml:space="preserve">
<style type="text/css">
	.st0{fill:#FFFFFF;}
</style>
<g>
	<path class="st0" d="M450.44,191.21v53.4H49.56v-53.4H450.44z M447.33,197.17h-30.4c0.03,0.43-0.11,1.48,0.39,1.63l29.84-0.04
		L447.33,197.17z M103.26,203.79c-17.68,1.16-18.98,30.35-2.07,34.12c9.27,2.06,17.31-3.65,18.93-12.83
		C122.14,213.56,115.86,202.96,103.26,203.79z M324.64,212.74c-1.45-5.06-6-8.65-11.26-8.98c-13.3-0.84-19.05,10.93-16.33,22.66
		c1.88,8.09,8.01,12.62,16.41,11.82c5.61-0.53,10.78-4.8,11.57-10.48l-3.02-0.77c-1.39,5.69-6.48,9.23-12.36,8.3
		c-10.24-1.62-12-16.61-7.12-23.93c3.79-5.68,13.03-6.66,17.24-0.96c0.7,0.94,1.01,2.06,1.68,3.01L324.64,212.74z M232.1,207.34
		c1.3,4.7,3.39,9.12,5.15,13.65c2.12,5.44,4.15,10.92,6.29,16.36c0.11,0.21,0.3,0.38,0.54,0.42c0.3,0.05,2.71,0.04,2.9-0.04
		c0.07-0.03,0.15-0.14,0.2-0.2l-13.08-32.87l-0.23-0.33c-0.37,0.04-0.74-0.08-1.1-0.1c-0.44-0.02-2.55-0.08-2.75,0.22l-12.61,33.08
		c0.25,0.42,1.86,0.19,2.31,0.16c0.24-0.02,0.83,0.07,0.96-0.08L232.1,207.34z M353.84,207.34c0.98,3.63,2.34,7.16,3.68,10.67
		c2.48,6.48,5.37,12.79,7.68,19.34c0.11,0.21,0.3,0.38,0.54,0.42c0.41,0.06,2.62,0.05,2.96-0.06c0.07-0.02,0.27-0.13,0.31-0.18
		l0-0.24l-13.38-32.5l-0.31-0.53c-0.5,0.14-3.45,0.02-3.63,0.26l-12.61,33.01c0.3,0.5,2.61,0.08,3.19,0.15
		c0.23-0.04,0.42-0.38,0.53-0.58c1.06-1.89,1.71-4.61,2.45-6.69c1.8-5.06,3.89-10.03,5.65-15.09c0.78-2.24,1.33-4.61,2.17-6.82
		C353.14,208.31,353.52,207.08,353.84,207.34z M157.38,204.32h-23.47v2.94h9.75c0.02,0,0.19,0.19,0.24,0.24l0.04,29.91
		c0.03,0.21,0.25,0.32,0.44,0.35c0.32,0.05,2.17,0.06,2.44-0.01c0.12-0.03,0.25-0.2,0.41-0.21l0.09-30.04
		c0.04-0.05,0.22-0.24,0.24-0.24h9.83V204.32z M177.59,204.32h-3.34v33.09c0,0.02,0.28,0.3,0.32,0.32c0.14,0.06,2.42,0.09,2.66,0.04
		c0.1-0.02,0.36-0.22,0.36-0.28V204.32z M266.47,204.32h-3.34v33.17c0,0.02,0.19,0.19,0.24,0.24l18.42,0.05
		c0.32-0.01,0.55-0.1,0.6-0.44c0.05-0.36,0.06-1.89-0.01-2.23c-0.03-0.17-0.19-0.33-0.36-0.36l-15.31-0.04
		c-0.05-0.04-0.24-0.21-0.24-0.24V204.32z M388.13,204.32h-3.34v33.21h19.26v-2.58c0-0.01-0.12-0.14-0.16-0.16l-15.51-0.08
		c-0.05-0.04-0.24-0.21-0.24-0.24V204.32z M434.12,204.41c-1.16,0.08-2.56-0.14-3.7-0.01c-0.11,0.01-0.21,0.01-0.27,0.13
		l-12.66,33.17c0.15,0.04,0.28,0.07,0.43,0.08c0.66,0.05,1.91,0.07,2.55,0c0.26-0.03,0.54-0.11,0.66-0.38
		c3.44-10,7.64-19.72,10.8-29.82l12.13,30.15l3.43-0.03L434.12,204.41z M75.98,204.56H52.27v2.42c0,0.02,0.19,0.19,0.24,0.24
		l9.43,0.04l0.42,0.3l0.01,29.86c-0.01,0.1,0.39,0.32,0.46,0.34c0.28,0.07,2.12,0.07,2.44,0.01c0.19-0.03,0.41-0.14,0.44-0.35
		l0.02-29.78c0.07-0.23,0.53-0.35,0.74-0.37l9.35-0.04c0.04-0.02,0.16-0.14,0.16-0.16V204.56z"/>
	<path d="M103.26,203.79c12.6-0.83,18.88,9.77,16.86,21.29c-1.61,9.19-9.66,14.9-18.93,12.83
		C84.28,234.14,85.57,204.95,103.26,203.79z M104.77,206.57c-16.5,0.36-16.05,29.79,0.78,28.82
		C121.6,234.47,120.33,206.23,104.77,206.57z"/>
	<path d="M324.64,212.74l-3.18,0.68c-0.67-0.95-0.99-2.07-1.68-3.01c-4.21-5.71-13.44-4.73-17.24,0.96
		c-4.88,7.31-3.12,22.31,7.12,23.93c5.87,0.93,10.96-2.6,12.36-8.3l3.02,0.77c-0.79,5.69-5.96,9.95-11.57,10.48
		c-8.39,0.8-14.53-3.73-16.41-11.82c-2.72-11.73,3.03-23.5,16.33-22.66C318.64,204.1,323.19,207.69,324.64,212.74z"/>
	<path d="M353.84,207.34c-0.32-0.26-0.7,0.97-0.78,1.17c-0.83,2.21-1.39,4.58-2.17,6.82c-1.76,5.06-3.85,10.03-5.65,15.09
		c-0.74,2.08-1.39,4.8-2.45,6.69c-0.11,0.2-0.3,0.54-0.53,0.58c-0.58-0.07-2.89,0.34-3.19-0.15l12.61-33.01
		c0.18-0.24,3.13-0.13,3.63-0.26l0.31,0.53L369,237.3l0,0.24c-0.03,0.05-0.23,0.15-0.31,0.18c-0.34,0.11-2.55,0.12-2.96,0.06
		c-0.24-0.04-0.43-0.21-0.54-0.42c-2.32-6.55-5.2-12.86-7.68-19.34C356.18,214.5,354.82,210.97,353.84,207.34z"/>
	<path d="M434.12,204.41l13.38,33.28l-3.43,0.03l-12.13-30.15c-3.16,10.1-7.36,19.82-10.8,29.82c-0.12,0.26-0.39,0.35-0.66,0.38
		c-0.64,0.07-1.89,0.05-2.55,0c-0.15-0.01-0.29-0.05-0.43-0.08l12.66-33.17c0.06-0.12,0.15-0.12,0.27-0.13
		C431.56,204.26,432.95,204.49,434.12,204.41z"/>
	<path d="M232.1,207.34l-11.42,30.27c-0.13,0.15-0.72,0.06-0.96,0.08c-0.45,0.04-2.06,0.26-2.31-0.16l12.61-33.08
		c0.2-0.3,2.31-0.24,2.75-0.22c0.36,0.02,0.72,0.13,1.1,0.1l0.23,0.33l13.08,32.87c-0.06,0.06-0.13,0.17-0.2,0.2
		c-0.19,0.08-2.59,0.08-2.9,0.04c-0.24-0.04-0.43-0.21-0.54-0.42c-2.14-5.44-4.17-10.92-6.29-16.36
		C235.48,216.46,233.4,212.04,232.1,207.34z"/>
	<path d="M157.38,204.32v2.94h-9.83c-0.02,0-0.19,0.19-0.24,0.24l-0.09,30.04c-0.16,0.01-0.29,0.18-0.41,0.21
		c-0.28,0.07-2.12,0.07-2.44,0.01c-0.19-0.03-0.41-0.14-0.44-0.35l-0.04-29.91c-0.04-0.05-0.22-0.24-0.24-0.24h-9.75v-2.94H157.38z"
		/>
	<path d="M75.98,204.56v2.5c0,0.01-0.12,0.14-0.16,0.16l-9.35,0.04c-0.21,0.02-0.67,0.15-0.74,0.37l-0.02,29.78
		c-0.03,0.21-0.25,0.32-0.44,0.35c-0.32,0.05-2.17,0.06-2.44-0.01c-0.08-0.02-0.47-0.23-0.46-0.34l-0.01-29.86l-0.42-0.3l-9.43-0.04
		c-0.05-0.04-0.24-0.21-0.24-0.24v-2.42H75.98z"/>
	<path d="M266.47,204.32v30.15c0,0.02,0.19,0.19,0.24,0.24l15.31,0.04c0.17,0.03,0.33,0.19,0.36,0.36c0.06,0.33,0.05,1.87,0.01,2.23
		c-0.04,0.33-0.28,0.43-0.6,0.44l-18.42-0.05c-0.05-0.04-0.24-0.21-0.24-0.24v-33.17H266.47z"/>
	<path d="M388.13,204.32v30.15c0,0.02,0.19,0.19,0.24,0.24l15.51,0.08c0.04,0.02,0.16,0.14,0.16,0.16v2.58h-19.26v-33.21H388.13z"/>
	<path d="M177.59,204.32v33.17c0,0.05-0.26,0.26-0.36,0.28c-0.24,0.05-2.52,0.03-2.66-0.04c-0.04-0.02-0.32-0.29-0.32-0.32v-33.09
		H177.59z"/>
	<path d="M447.33,197.17l-0.16,1.59l-29.84,0.04c-0.5-0.15-0.37-1.2-0.39-1.63H447.33z"/>
	<path class="st0" d="M104.77,206.57c15.56-0.34,16.83,27.9,0.78,28.82C88.72,236.36,88.27,206.93,104.77,206.57z"/>
</g>
</svg>
